<svg width="701px" height="700px" viewBox="0 0 701 700" xmlns="http://www.w3.org/2000/svg" xmlns:xlink="http://www.w3.org/1999/xlink"><defs><path id="a" d="M1.3345.6965h1.4788v.7823H1.3345z"/><path id="c" d="M0 0h295.7885v189.9559H0z"/></defs><g fill="none" fill-rule="evenodd"><path d="M546.5073 392.3661V170.1995c58.1787 0 111.8367 41.2968 111.8367 112.4401 0 71.1418-111.8367 109.7265-111.8367 109.7265m0-255.9289V48.4135H171.2338l1.6947 188.2549s-54.189 75.2632-93.3252 134.8719C40.467 431.1475 13.8945 509.809 18.7908 556.385c2.5539 24.2758 12.2489 11.2004 12.2489 11.2004s-.2928 6.4638 4.9953 6.4638c5.2897 0 5.7304-5.4346 5.7304-5.4346s4.701 10.5778 7.9337 2.2034c3.2312-8.3744 4.8475-44.8104 10.872-65.231 6.0232-20.4222 30.7486-86.3912 66.3195-132.2116 35.571-45.8205 44.0119-61.7974 44.0119-61.7974v200.1622l375.0916 2.6515v-80.7274S695.7235 388.749 695.7235 288.367s-71.442-151.9298-149.2162-151.9298" fill="#FFF"/><path d="m545.9067 41.857-68.9237 1.3287-305.7487-.0008c-2.5241 0-4.5703 2.0462-4.5703 4.5704v466.6363c0 2.5242 2.0462 4.5704 4.5703 4.5704h374.7604c2.5242 0 4.5704-2.0462 4.5704-4.5704V46.4273c0-2.5586-2.1003-4.6188-4.6584-4.5704Zm-4.4828 9.229V509.82H175.8035V52.3246l301.2676.001 64.3528-1.2396Z" fill="#331F28" fill-rule="nonzero"/><path d="M554.8913 601.3549c-2.0467-.3017-3.4205.9257-3.8745 3.0256-.4022 1.7657.5916 3.2016 2.094 2.8955 1.5439-.315 3.3702-1.541 4.0977-2.8896.7927-1.4655-.8976-2.823-2.3172-3.0315M439.2153 642.8889c-2.1428 2.2832-2.2478 5.3931 2.443 5.606 1.0322-1.069 2.0644-2.1368 3.098-3.2074-1.8618-.9124-2.7402-5.3813-5.541-2.3986M436.0851 613.3346c-.4081 1.2614-.8177 2.5243-1.2259 3.7872 1.3014 4.4985 4.1347 1.7716 6.4757 1.3738-.3683-1.4877-.735-2.9768-1.1018-4.466-1.3826-.2321-2.7653-.4628-4.148-.695M519.9114 629.6765c1.3605-.0651 3.6394-1.01 3.7902-1.8663.2972-1.677-.8193-3.5447-2.8378-3.9853-2.0334-.4437-2.338 1.3028-2.8097 2.7047-.3046 1.6074-.0444 3.2385 1.8573 3.1469M499.373 599.242l.8561.1124c2.446-1.4256 2.7772-3.3465.8829-5.34-.6063-.6373-2.3543-1.112-2.928-.7186-2.8083 1.9194-.3564 3.7945.3682 5.674l.8207.2722ZM218.5516 628.1638c-3.7428.2514-2.3572 3.666-3.0596 5.8117a8.496 8.496 0 0 1 1.9564.9346c2.0378-.6655 4.4808-1.2363 3.9425-4.015-.213-1.1002-1.918-2.7934-2.8393-2.7313M67.7146 619.291c-3.7428.2514-2.3572 3.666-3.0596 5.8132a8.491 8.491 0 0 1 1.9565.933c2.0377-.6668 4.4807-1.2362 3.9424-4.0148-.213-1.1003-1.918-2.7935-2.8393-2.7314M189.6617 628.0844c-.874.0325-2.0998.6861-2.4917 1.4196-.8858 1.6607.3726 2.9842 1.7849 3.1188 1.1475.111 2.406-.9376 3.2164-1.2954.3253-2.721-1.0544-3.2963-2.5096-3.243M397.5448 609.5785c.8459 1.143 1.461 2.6588 2.5879 3.3465 1.9875 1.2155 3.175-.942 5.1477-1.8988-1.2052-1.3546-2.1665-3.3746-3.45-3.6068-1.2585-.2277-2.8438 1.365-4.2856 2.159M266.699 608.7344c-.8857.7201-3.1572 1.708-3.2222 2.8304-.0902 1.529 1.1919 3.805 3.3627 3.6866 1.2082-.065 3.1055-1.3013 3.3332-2.3143.3845-1.7228-.3637-3.6437-3.4736-4.2027M379.6853 622.8673c-1.7672-.4332-3.2578.4082-3.2475 2.0023.0193 3.3318 2.9842 3.771 5.4302 4.5725 1.9668-3.0375 2.128-5.5145-2.1827-6.5748M382.2882 629.9537l-.3933-.5028c-.0089-.0044-.0178-.0059-.0266-.0088-.0193.028-.0355.0562-.0548.0857 0-.003.4747.426.4747.426M208.6665 604.573c-1.5483-.4806-3.1735-.102-3.141 1.7642.0222 1.2082 1.078 2.4001 1.9091 4.0786 1.2674-1.0041 2.4637-1.4744 2.6959-2.2375.4126-1.3664.34-3.0448-1.464-3.6053M373.37 596.2881c-1.8366.006-2.6277 1.1091-2.7934 2.7269-.1878 1.8219.9287 2.931 2.551 2.7934.8163-.068 1.986-1.3117 2.1693-2.196.287-1.3708.1006-3.03-1.9268-3.3243M309.2577 597.2715c-.2396-.2351-2.0333.6107-2.6515 1.3457-1.2436 1.4818-.4096 2.5657 1.183 3.2016 1.4463.386 3.2327.667 3.4575-1.1431.133-1.0751-1.0544-2.4873-1.989-3.4042M357.7446 635.723c-1.8382-.9064-3.8834-.3785-4.3166 1.5676-.213.9553 1.535 2.3483 2.2714 3.3717 1.85.3711 3.305.2869 3.9203-1.4478.6196-1.742-.5886-2.8555-1.8751-3.4914M454.1059 591.5564c-1.7672-.2898-2.5657 1.155-2.8793 2.4666-.3593 1.5084.4319 2.9399 2.1561 2.7476 1.1875-.1316 2.2789-1.1194 3.101-1.5601.071-2.3646-.8428-3.4027-2.3778-3.6541M411.2223 647.5332c-1.2629-.3505-4.3935 1.399-4.3373 1.6326.6389 2.6337 2.4859 4.145 5.3148 4.2308.9316-2.19 2.9694-4.7662-.9775-5.8634" fill="#293042"/><g transform="translate(410.147 652.0031)"><mask id="b" fill="#fff"><use xlink:href="#a"/></mask><path d="M2.1338 1.4004c-.0281-.0015-.0533-.0074-.0814-.0074-.0103.0296-.0251.0577-.0384.0858l.1198-.0784Z" fill="#293042" mask="url(#b)"/></g><path d="M294.9051 639.7868c-1.0336-.1715-2.6514.9553-3.419 1.9653-.8917 1.1772-.7216 2.6855 1.1713 3.2105 2.0614.5102 3.5225-.7571 4.3875-2.1398.2899-.4644-1.223-2.8822-2.1398-3.036" fill="#293042"/><path d="M577.2508 606.2411c0 12.311-95.6706 22.2899-213.6857 22.2899-118.0152 0-213.6857-9.979-213.6857-22.2899 0-12.311 95.6705-22.2898 213.6857-22.2898 118.0151 0 213.6857 9.9789 213.6857 22.2898M102.558 612.487c0 6.5333-22.5102 11.8303-50.279 11.8303-27.7688 0-50.279-5.297-50.279-11.8303 0-6.5334 22.5102-11.8304 50.279-11.8304 27.7688 0 50.279 5.297 50.279 11.8304" fill-opacity=".06" fill="#293042"/><path d="M496.1883 332.8053c2.1035 0 3.8087 1.7052 3.8087 3.8087 0 2.0193-1.5715 3.6716-3.5582 3.8005l-.2505.0081H213.659c-2.1035 0-3.8087-1.7052-3.8087-3.8086 0-2.0193 1.5715-3.6716 3.5583-3.8006l.2504-.008h282.5294ZM461.1646 319.5626c2.1034 0 3.8086 1.7052 3.8086 3.8086 0 2.0193-1.5715 3.6716-3.5582 3.8006l-.2504.008H213.6589c-2.1035 0-3.8087-1.7051-3.8087-3.8086 0-2.0193 1.5715-3.6716 3.5583-3.8005l.2504-.0081h247.5057Z" fill="#331F28" fill-rule="nonzero"/><path d="M492.7328 468.9233H223.3144c-7.4753 0-13.5354-6.0601-13.5354-13.5354v-50.1444c0-7.4753 6.06-13.5354 13.5354-13.5354h269.4184c7.4753 0 13.5354 6.06 13.5354 13.5354v50.1444c0 7.4753-6.06 13.5354-13.5354 13.5354" fill="#EB055E"/><path d="M264.1552 429.6606c-.4058 2.4534-2.4026 4.4495-4.8553 4.8546-1.9387.3204-3.8395-.285-5.2163-1.661-1.3755-1.3756-1.9815-3.277-1.6605-5.2158.4051-2.4533 2.402-4.4501 4.8553-4.856.3404-.056.68-.084 1.0158-.084 1.5743 0 3.0666.6113 4.2005 1.7459 1.3762 1.3762 1.9809 3.2776 1.6605 5.2163m-4.579-25.0305c-15.1491 0-24.2016 12.278-24.2016 24.1482 0 15.0464 12.8086 24.3592 24.6761 24.3592 7.0003 0 11.9984-2.5074 13.3632-3.2756a213.192 213.192 0 0 0 2.4187-1.3808.7844.7844 0 0 0 .367-.4966.7866.7866 0 0 0-.1114-.6106l-2.3052-3.4591c-.2363-.3524-.7161-.4498-1.0758-.215-3.7401 2.4454-7.91 3.6854-12.3928 3.6854-9.2754 0-18.8699-6.9602-18.8699-18.6069 0-9.0685 6.742-18.448 18.0256-18.448 6.766 0 17.4997 4.4075 17.4997 16.2336 0 2.5755-1.1406 8.221-4.5303 8.221-1.7879 0-2.0529-2.0136-2.0909-2.6142v-14.3162c0-.4312-.3504-.7809-.7808-.7809h-4.4042c-.4304 0-.7808.3497-.7808.7809v.558c-2.2138-1.3255-4.7425-1.8841-7.3413-1.6172-5.7496.5893-10.3292 5.3939-10.6516 11.1748-.1849 3.3096.967 6.457 3.2422 8.863 2.2778 2.408 5.3525 3.734 8.6574 3.734 4.0584 0 6.4917-1.8606 7.4154-2.7403 1.2133 1.8347 3.158 2.7637 5.7856 2.7637 4.4255 0 7.7991-2.2638 9.756-6.5478 1.7205-3.7634 1.7405-7.703 1.7405-7.7424 0-12.1519-10.2832-21.6702-23.4108-21.6702" fill="#331F28"/><path d="M439.2079 413.3944c2.1035 0 3.8086 1.7052 3.8086 3.8087 0 2.0193-1.5715 3.6716-3.5582 3.8005l-.2504.0081h-136.75c-2.1034 0-3.8086-1.7052-3.8086-3.8086 0-2.0194 1.5715-3.6716 3.5582-3.8006l.2504-.008h136.75ZM399.9563 433.5943c2.1034 0 3.8086 1.7052 3.8086 3.8086 0 2.0194-1.5715 3.6716-3.5582 3.8006l-.2504.008h-97.4984c-2.1034 0-3.8086-1.7051-3.8086-3.8086 0-2.0193 1.5715-3.6715 3.5582-3.8005l.2504-.0081h97.4984Z" fill="#331F28" fill-rule="nonzero"/><path d="M470.517 416.757c-15.1281 4.219-6.7315 14.464.488 13.7468 6.5672-.6522 20.008-4.4334 20.008-4.4334s-5.368-13.5325-20.496-9.3135" fill="#F9CBD2"/><path d="M582.537 416.4443c13.0045-4.8652 48.9452-26.8978 48.9452-26.8978l-17.756-29.6912-39.2944 22.494s-69.567 27.0781-79.534 29.873c-9.967 2.795 3.141 22.1568 3.141 22.1568l2.996 9.0147s5.1965 12.7103 17.0372 9.3904c11.8407-3.32 10.214-14.6002 10.214-14.6002s37.2479-15.0511 44.3668-17.046c7.1189-1.9964 9.8842-4.6937 9.8842-4.6937" fill="#FFF"/><path fill="#FFF" d="m495.1554 410.2409-30.9926 8.9689-.726 6.3692 5.1905 5.2733 23.4271-4.5236-1.0441 5.5706 7.845 10.041 7.0849-17.8668-4.4349-9.2188z"/><path d="M494.3722 414.8913c1.613-1.3501 4.015-1.137 5.3652.476 1.2914 1.5429 1.1526 3.8077-.2735 5.1832l-.45.4018-.395.3755c-.0512.05-.1046.1027-.16.158-.6682.666-1.339 1.4204-1.959 2.2365-2.2116 2.911-3.0802 5.6391-2.2704 7.8432.7056 1.9198 1.6761 3.3433 2.8396 4.383.7906.7065 1.6263 1.1962 2.4468 1.5087l.2988.1072.2323.073.2065.0538.027.0049a3.8088 3.8088 0 0 1 3.047 2.319l.1255.3406.1601.3926.1671.3674.2165.4416c.5576 1.0984 1.2713 2.2012 2.1432 3.2193 2.1734 2.5377 4.9268 4.1177 8.4583 4.4016 2.4706.1985 5.0307-1.5792 7.4514-5.0085.8953-1.2685 1.6874-2.649 2.3584-4.0305l.3524-.749.2594-.591.1647-.4093c.7396-1.9691 2.9354-2.9659 4.9046-2.2263 1.9691.7396 2.9658 2.9355 2.2262 4.9046l-.1532.3916-.1998.478-.2462.5576-.2926.6308a41.965 41.965 0 0 1-.1637.3409c-.84 1.7295-1.8329 3.46-2.9871 5.0953-3.8102 5.3978-8.5245 8.6714-14.2847 8.2086-5.6874-.4572-10.2275-3.0625-13.6336-7.0395-1.1316-1.3213-2.0687-2.716-2.8329-4.1227l-.317-.6035-.1742-.348-.2256-.0816c-1.4884-.567-2.9645-1.4014-4.352-2.552l-.4592-.3953c-2.0916-1.869-3.776-4.3396-4.9138-7.4356-1.9015-5.1753-.2658-10.313 3.3548-15.0785 1.4515-1.9107 2.8994-3.3539 3.9377-4.223Z" fill="#331F28" fill-rule="nonzero"/><path d="M500.0298 428.5413c1.4187-1.553 3.8277-1.6619 5.3807-.2432 1.4855 1.357 1.6497 3.6201.4196 5.1735l-.293.3493-.1618.2254-.1963.304-.22.378c-.038.069-.0765.1408-.1153.2154-.8977 1.7237-1.2251 3.6136-.695 5.66l.1176.4114c.6272 2.0078-.492 4.1439-2.4997 4.771-2.0078.6272-4.1439-.492-4.771-2.4997-1.347-4.312-.7307-8.361 1.092-11.861.6825-1.3106 1.3895-2.279 1.9422-2.884ZM549.0292 132.109l.9038-.0058.793.0061 1.3379.0282.9888.0327 1.0646.0448 1.7355.092 1.2474.079c5.2769.3557 11.0493 1.0217 17.1903 2.0727 17.1204 2.9298 34.167 8.3009 50.1155 16.7269 40.9011 21.6092 67.8605 59.4497 74.1574 116.8677 5.7902 52.7948-20.3172 95.4671-69.4793 128.7878-33.576 22.7568-73.876 38.6673-111.5542 48.3238-2.0376.5223-4.1128-.7062-4.635-2.7438-.5222-2.0376.7063-4.1127 2.7439-4.635 36.9022-9.4576 76.4444-25.069 109.1716-47.2505 47.0395-31.882 71.6201-72.059 66.1811-121.652-6.0142-54.8406-31.424-90.5062-70.1438-110.963-15.1788-8.0193-31.4678-13.1517-47.842-15.9538-5.876-1.0055-11.3916-1.642-16.4179-1.9808l-.7758-.05-1.4881-.0836-1.4013-.0622-1.3123-.0422-1.1546-.0224-.9063-.0044-.3578.0034c-2.103.0448-3.8441-1.6236-3.889-3.7266-.0449-2.103 1.6236-3.8441 3.7266-3.889Z" fill="#331F28" fill-rule="nonzero"/><path d="M544.1526 166.0676h.8735l1.2815.0222.6305.0185 1.3334.0535 1.4278.0766c.2457.0148.4952.0306.7484.0475 4.1338.2754 8.6577.7893 13.4725 1.5993 13.4418 2.2613 26.8305 6.4027 39.3643 12.901 32.077 16.631 53.2625 45.7285 58.2487 89.7667 3.0677 27.0937-6.5445 51.3306-26.8228 72.691-16.7983 17.6946-40.4198 32.9473-69.2261 46.0632-19.1958 8.74-39.629 16.0638-60.7658 22.287-6.662 1.9615-12.9718 3.6911-19.379 5.3464l-3.8298.9762-9.7233 2.4425-.2461.066c-2.8644.7987-4.617 1.792-5.3645 2.7316-.3237.4068-.3587.6386-.224 1.0024.5128 1.3849 2.8073 2.7413 4.6756 2.5556.493-.049 1.0455-.1196 1.6523-.2106l.9505-.1517 1.0284-.1813c.1776-.0326.3584-.0664.5422-.1014l1.1383-.2238c.1955-.0396.394-.0803.595-.1221l1.2399-.2642.6438-.1418a185.1277 185.1277 0 0 0 2.9616-.6858 248.3831 248.3831 0 0 0 4.5627-1.142l2.4753-.656 1.5646-.429c2.0248-.5696 4.128.61 4.6976 2.635.5469 1.9438-.5185 3.96-2.396 4.622l-.769.2228-2.1249.5748c-2.0236.5382-4.1355 1.0764-6.2339 1.5796-.7056.1693-1.3988.3318-2.0773.487l-1.7048.3809-1.3485.287-1.2827.259a89.5266 89.5266 0 0 1-1.7969.3338l-1.1102.1848c-.179.0282-.3551.0551-.5281.0807l-1.001.1375c-.3213.0404-.63.0754-.926.1048-5.242.5209-10.828-2.7813-12.5718-7.4906-2.1787-5.8841 1.8474-11.101 10.2165-13.5815l.823-.2294 3.8706-.9798 7.3334-1.8372c7.158-1.8224 14.1182-3.7115 21.515-5.8893 20.8177-6.1292 40.9246-13.336 59.7608-21.9124 62.103-28.2763 96.8543-64.8819 91.6365-110.9647-4.6916-41.4362-24.2985-68.3655-54.186-83.8612-11.772-6.1035-24.4144-10.014-37.1217-12.1518-4.5547-.7662-8.827-1.2516-12.7152-1.5106l-.696-.0442-1.324-.071c-.213-.01-.422-.0192-.6272-.0274l-1.4961-.0466-.5625-.0098-.9328-.0016c-2.103.0415-3.8415-1.6298-3.883-3.7328-.0415-2.103 1.6297-3.8415 3.7328-3.8853Z" fill="#331F28" fill-rule="nonzero"/><path d="m628.34 340.7377.5248.035.6066.0577c.1077.0117.2186.0243.3328.038l.7221.0958c.8853.1274 1.918.3117 3.07.5672 3.812.8454 7.6278 2.215 11.2186 4.2426 8.0377 4.5385 13.7261 11.6736 15.841 21.719.4333 2.0583-.884 4.0782-2.9423 4.5116-2.0584.4333-4.0783-.884-4.5116-2.9424-1.6385-7.7825-5.9121-13.143-12.1324-16.6553-2.8814-1.627-6.0002-2.7465-9.1225-3.4389-1.0914-.242-2.0997-.4125-2.995-.5233l-.8253-.0876-.1696-.0118c-2.1008-.1057-3.718-1.8944-3.6124-3.9952.1015-2.0168 1.754-3.588 3.7448-3.617l.2505.0046ZM127.7935 373.388l-.2124-.481c-.0395-.0861-.081-.175-.1246-.2668l-.2867-.5832a30.1564 30.1564 0 0 0-.1621-.3154l-.3623-.6755a37.6347 37.6347 0 0 0-.2002-.3591l-.4391-.758-.491-.8077a47.0766 47.0766 0 0 0-.2652-.421c-2.0983-3.293-4.6903-6.4103-7.8237-9.091-7.014-6.0008-15.6643-8.9058-25.8272-7.4574-2.0824.2968-3.53 2.2256-3.2331 4.308.2967 2.0824 2.2255 3.53 4.3079 3.2331 7.8735-1.1221 14.3725 1.0604 19.8004 5.7043 2.5144 2.1511 4.633 4.699 6.3516 7.3962.6007.9428 1.1057 1.832 1.5161 2.6354l.3646.7455.069.1553c.8179 1.938 3.052 2.846 4.9899 2.0281 1.8604-.7851 2.7716-2.8754 2.118-4.756l-.09-.2338Z" fill="#331F28" fill-rule="nonzero"/><path d="M168.159 232.5334c1.172-1.7467 3.5381-2.2125 5.2848-1.0404 1.6739 1.1232 2.1714 3.343 1.1784 5.0633l-.138.2215-99.6716 148.5364-.586.9137-.6684 1.0753-1.0106 1.6693-1.1362 1.9187-.6935 1.187a456.194 456.194 0 0 0-1.3874 2.4026l-1.4169 2.4851-2.2358 3.9755a609.9317 609.9317 0 0 0-1.6384 3.1269l-1.6042 3.1053a575.5483 575.5483 0 0 0-3.106 6.1458L57.827 416.36l-1.4686 3.019-1.4351 2.9977-1.4018 2.976c-2.0778 4.4481-4.0438 8.8238-5.9004 13.1273l-1.2216 2.8583c-.201.4746-.4005.9483-.5987 1.4212l-1.1734 2.8263c-1.543 3.7542-3.0009 7.4516-4.3752 11.0923l-1.015 2.72-.984 2.6987c-.1615.448-.3216.8951-.4804 1.3414l-.9376 2.667a344.6946 344.6946 0 0 0-2.629 7.8738l-.8157 2.5824c-.1335.4286-.2656.8564-.3966 1.2833l-.7706 2.5508c-4.6603 15.6648-7.6202 30.1285-9.0556 43.4124-1.3024 12.0528-1.2473 22.3927-.1836 31.0435.0562.4568.1146.9042.175 1.3422l.1867 1.285.1973 1.2264a76.69 76.69 0 0 0 .102.591l.2103 1.1362c.0713.3685.1437.7267.217 1.0744l.2225 1.0113.2263.9468c.038.1524.076.302.1142.4488l.2296.8476.2299.7798c.1913.6212.3814 1.1703.5665 1.644.357.9129.7747 1.4203 1.0816 1.6336l.0756.0477.0135-.0485a2.5514 2.5514 0 0 0 .0436-.282l.2749-3.7386.911-10.9593 1.1794-13.67c.1833-2.0954 2.0305-3.6455 4.126-3.4622 2.0116.1759 3.5207 1.8854 3.476 3.8758l-2.0147 23.7642-.3254 4.3051a28.9697 28.9697 0 0 0-.0075.1287c-.5637 10.0337-12.368 10.2858-15.9283 1.179-.7688-1.9664-1.4645-4.306-2.0532-7.0058l-.2456-1.179c-.2788-1.4014-.5295-2.8923-.7481-4.4712l-.1794-1.375-.163-1.4177-.1462-1.4605-.1285-1.5029c-.02-.254-.0391-.5098-.0575-.7673l-.1012-1.5662c-.1987-3.4388-.2636-7.1726-.1674-11.1911l.0559-1.875c.1463-4.1059.4578-8.495.9616-13.1571.1186-1.0976.2472-2.2028.3859-3.3155l.2909-2.2353c.203-1.497.4239-3.0073.6631-4.531l.3726-2.2956c2.1893-13.0656 5.7058-27.101 10.681-42.125l.8931-2.6615c.1514-.4453.304-.8915.458-1.3385l.9388-2.6924c.159-.4504.3194-.9017.481-1.3539l.9849-2.7233a395.4466 395.4466 0 0 1 2.0628-5.5083l1.0782-2.7852 1.1096-2.8058c.375-.9388.7555-1.881 1.1411-2.8266l1.173-2.8473a462.4813 462.4813 0 0 1 3.7105-8.6664l1.3014-2.9304c2.8549-6.3719 5.9387-12.8905 9.259-19.5569l1.5493-3.0873a591.028 591.028 0 0 1 1.583-3.1083l1.6168-3.1293a618.596 618.596 0 0 1 1.651-3.1504l1.589-2.8352 1.4396-2.5392 1.4263-2.4863 1.7631-3.0234 1.2293-2.0616 1.0907-1.7799.7232-1.1412.2224-.3423 99.6959-148.5729Z" fill="#331F28" fill-rule="nonzero"/><path d="M44.0215 538.9175c2.0975.1587 3.6691 1.9877 3.5104 4.0852l-.1064 1.3105-.1118 1.2908-.196 2.1219c-.338 3.532-.7329 7.0657-1.1822 10.3746l-.2725 1.9528-.2716 1.8252-.182 1.1474-.1837 1.093-.1864 1.0393-.1898.9866-.194.9348-.1993.884a42.7341 42.7341 0 0 1-.1019.423l-.2086.8093-.216.7605c-.8063 2.7003-1.7776 4.4367-3.1042 5.4069-4.6835 3.4272-9.1237 1.8598-11.7106-2.2106-.7685-1.209-1.2405-2.371-1.4985-3.2555-.589-2.0193.5705-4.1337 2.5898-4.7227 1.9385-.5655 3.9647.4805 4.6448 2.3516l.078.2382c.0637.2185.2362.6519.4844 1.0863l.2204.3634.1907.3379c.0277.0381.0488.044.082.0225l.038-.0318.0951-.1946.1209-.288c.234-.5926.4844-1.4167.7383-2.4384l.109-.4498a50.505 50.505 0 0 0 .235-1.0465l.2324-1.1368a82.9 82.9 0 0 0 .2294-1.2236l.226-1.3067c.0375-.2245.0748-.4523.1119-.6834l.2209-1.4246.217-1.4986c.036-.2558.0716-.5145.1071-.776.4343-3.198.8184-6.636 1.1476-10.0755l.2475-2.7112.1537-1.861c.1524-2.0136 1.8441-3.5426 3.8349-3.5213l.2503.0109Z" fill="#331F28" fill-rule="nonzero"/><path d="M168.204 307.8869c1.2078-1.7222 3.583-2.1391 5.3051-.9313 1.6504 1.1574 2.102 3.387 1.0738 5.0865l-.1425.2186-53.0858 75.692a3.9 3.9 0 0 1-.5187.6008l-.1328.1152-.602.8727c-21.8647 31.6804-37.5016 62.1644-47.8565 91.1353l-.5596 1.5788c-7.6418 21.7422-11.7521 40.8762-13.4077 57.6855l-.6972 7.638-.2171 2.2194-.221 2.1103c-.0373.3438-.0749.684-.1129 1.0208l-.233 1.9858-.2983 2.3382-.1789 1.3179-.2725 1.8838-.1856 1.1945-.1898 1.1459-.1946 1.0977-.2004 1.05c-.0339.171-.068.3401-.1025.5072l-.2105.9793a51.9111 51.9111 0 0 1-.108.472l-.2223.9095c-1.3593 5.3185-3.1986 8.1554-6.2916 8.9397-4.3718 1.1102-7.8087-.695-9.7763-4.035-.8202-1.3925-1.2372-2.7293-1.416-3.7621-.3592-2.0726 1.0299-4.0439 3.1025-4.403 1.9896-.3447 3.886.9217 4.3521 2.8573l.0508.2453c.0358.2068.1988.7293.4738 1.1962.2274.386.3815.5695.6514.6065l.0916.0041.0472-.0817c.3385-.621.7018-1.5752 1.06-2.8117l.119-.4226c.2687-.978.5259-2.0836.7722-3.3095l.2427-1.2657.2356-1.3442c.0387-.2305.0771-.4642.1152-.701l.2253-1.4591.2186-1.5336.212-1.6064c.0788-.62.1555-1.2485.2306-1.8891l.2211-1.9608.2148-2.0522.7954-8.6132c1.6339-17.6956 5.885-37.8247 13.918-60.6798 10.7609-30.6165 27.263-62.8296 50.5501-96.2705a3.9006 3.9006 0 0 1 .5178-.6034l.1579-.1408 52.4795-74.8281Z" fill="#331F28" fill-rule="nonzero"/><g><g transform="translate(210.51 88.5723)"><mask id="d" fill="#fff"><use xlink:href="#c"/></mask><use fill="#DCEEF7" fill-rule="nonzero" xlink:href="#c"/><path d="M195.6066 185.8145c0-4.0844-3.3096-7.394-7.394-7.394-4.083 0-7.394 3.3096-7.394 7.394 0 1.43.4244 2.7536 1.1283 3.8848h12.5328c.7024-1.1312 1.1269-2.4548 1.1269-3.8848M114.2729 185.8145c0-4.0844-3.3095-7.394-7.394-7.394-4.083 0-7.394 3.3096-7.394 7.394 0 1.43.4245 2.7536 1.1284 3.8848h12.5328c.7024-1.1312 1.1268-2.4548 1.1268-3.8848" fill="#331F28" mask="url(#d)"/><path d="M352.612 30.5958c2.1034-.014 3.82 1.6796 3.8342 3.783l.7942 117.919c.014 2.1034-1.6796 3.82-3.783 3.8342l-186.266 1.2556c-2.1033.014-3.82-1.6796-3.8341-3.783L162.563 35.684c-.0141-2.1034 1.6795-3.82 3.783-3.8342ZM290.42 95.4877l-27.301 23.9459c-1.3512 1.1851-3.3343 1.2573-4.763.2084l-.2209-.1749-27.7491-23.6844-53.634 53.921 167.914-1.131-54.246-53.085Zm-120.181-51.042.675 100.326 53.661-53.949-54.336-46.377Zm178.655-.242-52.73 46.247 53.393 52.25-.663-98.497Zm-4.787-5.933-168.045 1.131 56.283 48.0374c.1866.1284.3644.2753.5307.4407l.0673.0709 27.6305 23.583 83.5335-73.263Z" fill="#B3DAE0" fill-rule="nonzero" mask="url(#d)" transform="rotate(6 259.9017 93.9917)"/></g></g></g></svg>
