<svg width="172" height="99" xmlns="http://www.w3.org/2000/svg"><g fill="none" fill-rule="evenodd"><path d="M133.66 16.28c1.11 0 2.01.9 2.01 2.02v15.93c0 1.11-.9 2.01-2 2.01H81.21c-1.11 0-2.01-.9-2.01-2.01V18.3c0-1.12.9-2.02 2.01-2.02h52.44zm25.27 0c1.11 0 2.01.9 2.01 2.02v15.93c0 1.11-.9 2.01-2 2.01h-17.97c-1.1 0-2-.9-2-2.01V18.3c0-1.12.9-2.02 2-2.02h17.96z" fill-opacity=".06" fill="#293042"/><path d="M7.16 2.57c.2 1.21.25 3.22.26 4.6a4.67 4.67 0 014.62 1.93c1.1.2 3.6.96 4.6 3.75 1.11 3.15-2.8 5.99-2.97 6.1l-.08.06c-.2 7.26.39 24.98 9.58 36.12 4.7 5.7 11.06 8.95 18.93 9.7 9.32.86 20.17-5.3 26.78-11.78.18-.18.41-.26.64-.27V2.83a1.16 1.16 0 011.17-1.15l18.34.35h81.34c.63 0 1.15.52 1.15 1.16v94.33a1.15 1.15 0 11-2.3 0V4.34H89l-17.18-.33v92.26a1.15 1.15 0 11-2.3 0V55.03c-9.2 8.71-19.2 11.73-25.8 11.73-.63 0-1.23-.03-1.8-.08-8.37-.78-15.17-4.27-20.2-10.37a37.06 37.06 0 01-5.45-9.17 10.99 10.99 0 01-9.04 3.56 45.48 45.48 0 006.31 10.95c6.62 8.34 15.97 13.1 27.8 14.17 8.86.8 18.09-1.34 25.3-5.87a.93.93 0 011 1.58 43.06 43.06 0 01-26.48 6.16c-12.35-1.12-22.14-6.13-29.08-14.89C7.44 56.95 1.63 46.14.28 27.83c-.8-10.9.38-19.46.4-19.54l.45-4.27C1.36.42 3.44.03 4.08 0a3.09 3.09 0 013.08 2.57zM89.3 77.32a11.58 11.58 0 018.18 19.74.93.93 0 01-1.32 0 .94.94 0 010-1.32 9.7 9.7 0 00-13.71-13.72 9.63 9.63 0 00-2.84 6.86c0 2.6 1 5.03 2.84 6.86a.93.93 0 01-1.32 1.32 11.49 11.49 0 01-3.4-8.18c0-3.09 1.21-6 3.4-8.18a11.49 11.49 0 018.17-3.38zm0 6.38c.51 0 .93.42.93.94v3.24h3.25a.93.93 0 110 1.87h-3.25v3.24a.93.93 0 11-1.87 0v-3.24h-3.24a.93.93 0 110-1.87h3.24v-3.24c0-.52.42-.94.94-.94zm50.43 6.25a.93.93 0 110 1.86h-33.52a.93.93 0 110-1.86h33.52zm13.76-6.2a.93.93 0 110 1.87h-47.28a.93.93 0 110-1.87h47.28zM94.3 48.98a5.95 5.95 0 015.94 5.94v9.32a5.95 5.95 0 01-5.94 5.94h-9.72a5.95 5.95 0 01-5.94-5.94v-9.32a5.95 5.95 0 015.94-5.94h9.72zm0 1.86h-9.72a4.08 4.08 0 00-4.07 4.08v9.32a4.08 4.08 0 004.07 4.07h9.72a4.08 4.08 0 004.07-4.07v-9.32a4.08 4.08 0 00-4.07-4.08zm.03 5.23c.37.36.37.95 0 1.32l-5.37 5.4a.93.93 0 01-1.32 0l-2.81-2.81a.93.93 0 111.32-1.32l2.15 2.15L93 56.07a.93.93 0 011.32 0zm45.41 4.28a.93.93 0 110 1.87h-33.52a.93.93 0 110-1.87h33.52zm13.76-6.2a.93.93 0 110 1.87h-47.28a.93.93 0 110-1.87h47.28zM4.17 1.87c-.64.03-1.09.91-1.18 2.3l-.47 4.35C2.48 8.8-.4 30.2 6.47 48.77h.15a9.24 9.24 0 008.86-3.62c-5.06-13.66-3.66-28.78-3.58-29.6a.93.93 0 111.86.19l-.06.69c.75-.8 1.54-1.93 1.18-2.96a3.92 3.92 0 00-2.83-2.46.92.92 0 01-.38.07 2.49 2.49 0 00-2.1 1.02.94.94 0 01-1.3.26.93.93 0 01-.28-1.28l.04-.05a4.5 4.5 0 011.87-1.5c-.36-.25-.88-.5-1.62-.56a1.8 1.8 0 00-1.09.28.95.95 0 01-.38.27 6.1 6.1 0 00-1.36 1.77.94.94 0 01-1.69-.8c.04-.08.67-1.39 1.8-2.36 0-1.12-.02-3.86-.25-5.26-.1-.6-.7-1.02-1.14-1zM109.2 33.25a1.96 1.96 0 011.75 2.84l-.08.16h-3.33a1.96 1.96 0 011.66-3zm-21.6 0a1.96 1.96 0 011.75 2.84l-.08.16h-3.33a1.95 1.95 0 011.66-3z" fill="#282B30"/></g></svg>