<svg xmlns="http://www.w3.org/2000/svg" viewBox="0 0 90 90"><g fill="none" fill-rule="evenodd"><path d="M45 0A45 45 0 114.97 24.43 15 15 0 1025.9 4.25 44.8 44.8 0 0145 0z" fill="#FFABC8" fill-rule="nonzero"/><path d="M50.39 12.43L48.3 24.06c3.9 3.53 8.65 10.57 8.65 10.57h5.76c.8 0 1.44.64 1.44 1.43V46.8c0 .4-.17.78-.45 1.05l-5.13 4.82s-.8 5.48-6.04 10.21l-.05 1.55v5.83a4.18 4.18 0 01-4.18 4.18h-1.66a4.18 4.18 0 01-3.93-2.77l.28-.23-.75.17.03 1.7c0 2.95-2.4 5.34-5.34 5.34h-2.12a5.34 5.34 0 01-5.03-3.53l-1.46-5.17L16 68.55 14.5 73.8l-1.37 1.3-.84.82A44.85 44.85 0 010 45c0-6.61 1.43-12.9 3.99-18.55l4.49.42.6.7c.5.58 1.38-.35 3.26-1.27 4.56-.9 9.9.38 14.56 0 1.1.38 1.67.6 1.82.26.05-.13.18-.33.36-.6 4.65-1.38 1.97-7.28 5.2-6.25 3.62-.45 5.7-.58 6.21-.38.08-.47.49-2.47 2.07-4.2l-.05-.08c2.5-3.68 7.88-2.62 7.88-2.62z" fill="#EB145F"/><path d="M18.11 0a16.45 16.45 0 0116.37 18.06c.33-.22.72-.35 1.14-.35 4.42.03 8.35.99 11.78 2.7l1.63-5.99h-.09c-.62.03-1.25.12-1.85.28l-.36.1a5.22 5.22 0 00-2.9 2.05 2 2 0 01-3.31-2.25 9.18 9.18 0 015.02-3.62c1.92-.6 3.9-.68 5.7-.47l.31.04.25.04.19.03a2 2 0 011.57 2.34l-.03.15-2.56 9.44a27.03 27.03 0 016.84 7.15l.16.25.3.47.25.43h5.09a3.5 3.5 0 013.56 3.25v10.92c0 2.42-1.53 4.35-3.93 5.95-.75.5-1.5.92-2.17 1.24l-.27.13-.05.17c-.14.45-.32.96-.55 1.53l-.11.28a21.46 21.46 0 01-5.64 7.75v6.4c0 3.38-2.85 6.06-6.33 6.18h-2.04a6.88 6.88 0 01-3.19-.77 7.79 7.79 0 01-7.16 4.98h-2.57a7.85 7.85 0 01-7.24-4.54l-.1-.26-.05-.14-1.15-3.72h-.13l-6.01-.46-1.2 3.86a2 2 0 01-3.86-1.03l.04-.15 2.2-7.12a2 2 0 013.91.52l3.9.3a2 2 0 013.87-.64l.05.14 2.17 7.03.06.12a3.84 3.84 0 003.33 2.09h2.53c2.08 0 3.72-1.43 3.82-3.13v-.17l-.18-9.15a2 2 0 014-.22v.14l.03 1.57a23.38 23.38 0 009.76-5.9 17.48 17.48 0 003.5-5.24c.25-.61.45-1.18.58-1.67l.08-.3.05-.22a2 2 0 011.28-1.56l.25-.1.25-.1.3-.14c.62-.3 1.25-.64 1.82-1.02 1.33-.89 2.07-1.78 2.15-2.5v-10.3h-5.85a2 2 0 01-1.75-1.03l-.15-.3-.15-.28a23.34 23.34 0 00-4.3-5.5A21.85 21.85 0 0035.6 21.7a2 2 0 01-1.63-.86 16.32 16.32 0 01-2.58 5.33 2 2 0 01-1.97 3.47 25.1 25.1 0 00-22.22.36 2 2 0 01-2.04-3.43l.2.25A16.45 16.45 0 0118.11 0zM43.4 68.02l-.15.04v.47c.14.14.25.3.34.48l.06.15c.32.82 1.2 1.42 2.24 1.49h2c1.4 0 2.47-.93 2.56-2.03v-3.65a31.54 31.54 0 01-7.05 3.05zm-2.18-36.78c3.5 0 6.34 2.84 6.34 6.34a2 2 0 01-4 .15v-.15a2.34 2.34 0 00-4.68-.16v.16a2 2 0 11-4 0c0-3.5 2.83-6.34 6.34-6.34zM18.1 4a12.45 12.45 0 00-9.65 20.3 2 2 0 01.35.65 29.2 29.2 0 0118.7-.34A12.45 12.45 0 0018.12 4z" fill="#331F28" fill-rule="nonzero"/><path d="M18.97 25.8c.08 0 .15-.03.2-.09a.28.28 0 00.08-.2v-1.87a5.94 5.94 0 001.94-.77c.36-.21.66-.47.92-.75a4.26 4.26 0 00.9-2.62c-.01-.37-.04-.7-.1-.99a3.37 3.37 0 00-1.08-1.72c-.3-.26-.7-.52-1.19-.79-.49-.26-1.07-.52-1.74-.77-.54-.2-.98-.39-1.33-.57a3.05 3.05 0 01-.74-.52c-.15-.15-.25-.29-.3-.4a.97.97 0 01-.07-.38 1.08 1.08 0 01.75-1.06 3.91 3.91 0 01.95-.18c.67 0 1.36.21 2.08.64l.13.05.65.4c.15.11.28.1.39-.05l1.24-1.68c.1-.12.08-.25-.04-.37a6.04 6.04 0 00-3.27-1.68V7.91a.28.28 0 00-.08-.2.28.28 0 00-.2-.08h-2.02a.28.28 0 00-.19.08.26.26 0 00-.09.2V9.5a4.8 4.8 0 00-2.56 1.44 3.94 3.94 0 00-.9 2.55c0 1.9 1.3 3.32 3.89 4.28a8.9 8.9 0 012.02.94c.32.24.5.56.52.95.02.28-.08.56-.32.83-.35.37-.87.55-1.55.55-.26 0-.5-.02-.73-.05-.22-.04-.44-.1-.65-.18a4.1 4.1 0 01-1.1-.6 8.7 8.7 0 01-1.08-.87.24.24 0 00-.2-.07.3.3 0 00-.2.1l-1.38 1.67c-.12.14-.1.28.03.4.76.65 1.44 1.16 2.06 1.53.6.37 1.3.63 2.08.75v1.8c0 .08.03.14.08.2s.12.09.2.09h2z" fill="#331F28" fill-rule="nonzero"/></g></svg>